<!DOCTYPE svg PUBLIC "-//W3C//DTD SVG 20010904//EN" "http://www.w3.org/TR/2001/REC-SVG-20010904/DTD/svg10.dtd">
<svg version="1.0" xmlns="http://www.w3.org/2000/svg" width="733px" height="365px" viewBox="0 0 7330 3650" preserveAspectRatio="xMidYMid meet">
<g id="layer101" fill="#3a0057" stroke="none">
<path d="M655 2888 c-16 -6 -50 -24 -73 -41 l-44 -29 -29 -65 -29 -65 0 -259 0 -258 35 -74 c19 -40 38 -87 41 -105 l6 -31 36 -36 36 -36 23 -5 23 -6 0 -75 0 -75 17 -35 16 -35 40 -29 40 -29 19 0 18 0 1 -22 c1 -13 1 -85 -1 -161 l-2 -137 45 -45 44 -45 195 0 194 0 34 25 c19 14 40 36 47 48 l12 22 1 88 0 88 58 -3 57 -3 5 -90 5 -90 12 -22 13 -21 34 -21 33 -21 187 0 187 0 22 11 c27 14 51 38 67 68 l12 23 -2 127 c-1 69 -2 136 -1 148 l1 23 37 15 c21 9 48 26 61 37 l22 22 133 -22 132 -22 70 0 71 0 39 -20 c22 -11 48 -20 58 -20 10 0 27 -5 38 -10 l19 -11 0 -101 0 -101 21 -33 20 -33 33 -20 33 -21 20 0 21 0 6 -30 6 -30 22 -31 c13 -17 37 -39 54 -50 l31 -19 19 0 19 0 18 -51 19 -51 -12 -28 -12 -28 4 -116 3 -115 35 -36 34 -35 36 -10 35 -10 85 0 85 0 38 11 37 10 25 25 25 24 13 48 14 47 41 7 41 7 30 32 31 32 6 36 c4 20 9 40 12 45 l5 8 8 -13 c5 -8 9 -26 9 -41 l0 -27 31 -35 30 -35 42 -8 42 -9 6 -35 5 -35 29 -36 29 -36 42 -12 41 -12 104 4 104 3 30 15 29 15 24 35 23 35 -5 130 c-3 71 -5 139 -6 150 0 11 2 37 6 58 l6 37 26 0 25 0 43 33 43 32 10 23 c6 13 11 34 11 47 l0 25 23 0 c12 0 57 11 99 24 l77 23 21 -22 c12 -12 44 -35 72 -50 l51 -28 96 -7 96 -7 37 -17 38 -16 117 -20 118 -20 66 0 66 0 44 -19 c50 -22 148 -43 299 -67 58 -8 130 -20 160 -26 30 -5 109 -12 175 -15 l120 -5 64 -31 64 -31 112 -1 112 0 48 30 49 30 33 43 32 43 12 42 11 42 -3 150 -4 150 -40 79 -40 78 -49 44 -49 44 -5 89 -5 88 45 21 44 22 23 30 22 31 -1 184 0 183 -6 16 c-3 8 -22 28 -42 43 l-37 28 -89 5 -90 5 -7 29 -8 29 -23 24 -23 25 -34 14 -33 14 -167 0 -166 -1 -34 -17 -34 -17 -21 -28 -21 -28 -5 -87 -5 -87 -57 -3 -58 -3 0 72 0 73 -21 42 -20 43 -43 20 -42 21 -163 0 -162 0 -32 -16 c-45 -23 -66 -43 -84 -81 l-15 -33 -57 0 c-31 0 -73 -4 -93 -9 l-37 -9 -29 -23 -30 -24 -11 -36 -11 -36 0 -67 0 -66 -19 0 c-10 0 -38 7 -62 15 l-44 16 -75 9 c-76 9 -133 19 -250 45 -36 8 -119 24 -185 35 l-120 20 -58 0 -58 0 -21 11 c-30 16 -126 38 -168 39 l-35 0 -42 15 -41 14 -69 6 -68 6 -53 16 -53 15 -102 -4 -102 -4 -26 -17 -26 -17 -13 15 c-7 8 -39 31 -72 51 l-59 36 -77 20 -77 20 -111 7 -112 7 -25 17 -25 16 -88 12 -88 11 -48 -5 -48 -6 -50 26 -51 26 -107 4 -107 4 -35 19 -35 18 -57 12 -56 11 -64 -2 -64 -2 -25 16 -24 16 -125 26 -125 25 -90 6 -90 6 -21 13 -21 13 -82 13 -83 12 -61 -6 -61 -5 -26 17 c-14 10 -44 23 -66 29 l-41 12 -89 -1 -89 -1 -30 -10z"/>
</g>
<g id="layer102" fill="#6d2a8f" stroke="none">
<path d="M655 2888 c-16 -6 -50 -24 -73 -41 l-44 -29 -29 -65 -29 -65 0 -259 0 -258 35 -74 c19 -40 38 -87 41 -105 l6 -31 36 -36 36 -36 23 -5 23 -6 0 -75 0 -75 17 -35 16 -35 40 -29 40 -29 19 0 18 0 1 -22 c1 -13 1 -85 -1 -161 l-2 -137 45 -45 44 -45 195 0 194 0 34 25 c19 14 40 36 47 48 l12 22 1 88 0 88 58 -3 57 -3 5 -90 5 -90 12 -22 13 -21 34 -21 33 -21 187 0 187 0 22 11 c27 14 51 38 67 68 l12 23 -2 127 c-1 69 -2 136 -1 148 l1 23 37 15 c21 9 48 26 61 37 l22 22 133 -22 132 -22 70 0 71 0 39 -20 c22 -11 48 -20 58 -20 10 0 27 -5 38 -10 l19 -11 0 -101 0 -101 21 -33 20 -33 33 -20 33 -21 20 0 21 0 6 -30 6 -30 22 -31 c13 -17 37 -39 54 -50 l31 -19 19 0 19 0 18 -51 19 -51 -12 -28 -12 -28 4 -116 3 -115 35 -36 34 -35 36 -10 35 -10 85 0 85 0 38 11 37 10 25 25 25 24 13 48 14 47 41 7 41 7 30 32 31 32 6 36 c4 20 9 40 12 45 l5 8 8 -13 c5 -8 9 -26 9 -41 l0 -27 31 -35 30 -35 42 -8 42 -9 6 -35 5 -35 29 -36 29 -36 42 -12 41 -12 104 4 104 3 30 15 29 15 24 35 23 35 -5 130 c-3 71 -5 139 -6 150 0 11 2 37 6 58 l6 37 26 0 25 0 43 33 43 32 10 23 c6 13 11 34 11 47 l0 25 23 0 c12 0 57 11 99 24 l77 23 21 -22 c12 -12 44 -35 72 -50 l51 -28 96 -7 96 -7 37 -17 38 -16 117 -20 118 -20 66 0 66 0 44 -19 c50 -22 148 -43 299 -67 58 -8 130 -20 160 -26 30 -5 109 -12 175 -15 l120 -5 64 -31 64 -31 112 -1 112 0 48 30 49 30 33 43 32 43 12 42 11 42 -3 150 -4 150 -40 79 -40 78 -49 44 -49 44 -5 89 -5 88 45 21 44 22 23 30 22 31 -1 184 0 183 -6 16 c-3 8 -22 28 -42 43 l-37 28 -89 5 -90 5 -7 29 -8 29 -23 24 -23 25 -34 14 -33 14 -167 0 -166 -1 -34 -17 -34 -17 -21 -28 -21 -28 -5 -87 -5 -87 -57 -3 -58 -3 0 72 0 73 -21 42 -20 43 -43 20 -42 21 -163 0 -162 0 -32 -16 c-45 -23 -66 -43 -84 -81 l-15 -33 -57 0 c-31 0 -73 -4 -93 -9 l-37 -9 -29 -23 -30 -24 -11 -36 -11 -36 0 -67 0 -66 -19 0 c-10 0 -38 7 -62 15 l-44 16 -75 9 c-76 9 -133 19 -250 45 -36 8 -119 24 -185 35 l-120 20 -58 0 -58 0 -21 11 c-30 16 -126 38 -168 39 l-35 0 -42 15 -41 14 -69 6 -68 6 -53 16 -53 15 -102 -4 -102 -4 -26 -17 -26 -17 -13 15 c-7 8 -39 31 -72 51 l-59 36 -77 20 -77 20 -111 7 -112 7 -25 17 -25 16 -88 12 -88 11 -48 -5 -48 -6 -50 26 -51 26 -107 4 -107 4 -35 19 -35 18 -57 12 -56 11 -64 -2 -64 -2 -25 16 -24 16 -125 26 -125 25 -90 6 -90 6 -21 13 -21 13 -82 13 -83 12 -61 -6 -61 -5 -26 17 c-14 10 -44 23 -66 29 l-41 12 -89 -1 -89 -1 -30 -10z m228 -68 l54 -20 18 -20 18 -20 23 0 23 0 7 11 7 12 98 -6 98 -6 28 -14 28 -14 85 -7 c99 -8 232 -31 310 -52 l55 -16 28 -20 29 -21 52 12 53 12 45 -10 c66 -15 100 -30 125 -53 l23 -21 55 13 56 13 61 -11 61 -11 37 -26 37 -25 84 6 84 7 60 -13 60 -12 20 -14 19 -14 76 0 75 0 92 -19 91 -19 54 -27 53 -26 45 -45 46 -44 12 0 c6 0 32 15 58 33 l46 32 81 -1 82 -1 32 -16 32 -17 66 0 66 0 36 -15 35 -15 52 0 51 0 70 -25 70 -25 58 0 59 0 116 -20 c64 -11 140 -27 169 -35 l51 -15 39 0 38 -1 40 -16 40 -15 70 -3 70 -2 35 -18 35 -18 70 -3 c39 -1 78 0 88 2 l17 5 0 109 0 109 26 20 27 21 76 0 77 0 20 -15 c10 -8 25 -15 32 -15 l12 0 0 53 0 53 31 32 31 32 140 0 140 0 35 -35 34 -34 -2 -83 -1 -83 -15 -16 -14 -17 25 -6 c30 -7 205 -7 263 1 l43 5 -10 18 -10 19 0 86 0 87 31 29 31 29 145 0 145 0 29 -29 29 -29 0 -52 0 -52 28 7 c15 4 64 10 109 12 l82 4 26 -25 25 -25 0 -166 0 -166 -26 -24 -27 -25 -40 0 -39 0 4 -141 3 -140 52 -47 52 -47 24 -41 c14 -22 32 -65 41 -94 l16 -54 0 -112 0 -111 -15 -44 -16 -43 -22 -24 c-26 -28 -80 -57 -124 -67 l-33 -7 -57 12 -58 12 -42 24 -42 24 -10 17 -9 18 -49 -18 -48 -17 -50 0 -50 1 -40 14 -40 15 -40 0 c-22 0 -58 5 -80 10 -22 5 -89 16 -150 25 l-110 16 -58 21 c-32 11 -60 24 -62 29 l-5 7 -73 -4 -72 -5 -128 25 -129 25 -34 20 -34 20 -62 -5 -63 -6 -44 16 c-25 9 -60 28 -78 42 l-33 25 -22 39 -23 40 -11 0 c-6 0 -19 -10 -30 -21 l-19 -22 -45 -21 -45 -21 -75 -5 -75 -5 -5 -54 -6 -53 -32 -29 -32 -29 -45 0 -45 0 0 -44 0 -45 -23 -27 -23 -27 -40 -7 -39 -8 36 -1 36 -1 27 -26 26 -27 0 -104 0 -104 -25 -24 -24 -25 -101 0 -101 0 -24 25 -25 24 0 56 0 55 -49 0 -48 0 -27 21 -26 20 0 60 0 59 -95 0 -95 0 0 -46 0 -45 -12 -22 c-6 -12 -18 -27 -27 -34 l-16 -12 -52 -1 -53 0 0 -45 0 -46 -15 -28 -14 -29 -16 -6 c-9 -3 -57 -6 -105 -6 l-89 0 -28 24 -28 24 -3 100 -4 99 25 29 25 29 58 6 59 6 -54 2 -55 1 -28 27 -28 27 0 47 0 47 -53 4 -54 4 -26 25 -26 24 -3 55 -3 55 -52 3 -51 3 -26 24 -26 24 0 123 0 123 -57 14 -58 13 -41 23 -41 24 -69 -5 -69 -6 -173 31 -172 32 -38 -41 -39 -40 -41 0 -42 0 0 -39 0 -38 -19 -24 -19 -24 19 -24 19 -23 0 -95 0 -94 -26 -24 -27 -25 -152 0 -152 0 -24 26 -24 26 -5 111 -5 112 -135 0 -135 0 -5 -117 -5 -117 -18 -18 -18 -18 -154 -3 -155 -3 -30 30 -30 29 0 85 0 84 21 27 20 26 -20 26 -21 27 0 38 0 39 -39 0 -40 0 -28 24 -28 24 -5 114 -5 113 -35 3 -35 3 -27 27 -28 26 0 24 0 24 -35 59 -35 60 0 267 0 267 21 35 c27 44 56 70 100 92 l34 17 52 0 52 1 54 -20z"/>
<path d="M747 2643 c-3 -5 -6 -103 -6 -219 l0 -211 12 -16 12 -15 110 -20 c61 -11 140 -26 178 -32 l67 -12 31 12 30 13 14 28 15 28 0 49 0 49 -11 31 -10 31 -25 16 -24 15 0 15 0 14 -30 16 -30 16 62 47 63 47 0 15 0 15 -66 9 -66 9 -78 -52 -78 -51 -27 0 -28 0 -4 65 -4 65 -9 9 c-6 5 -29 12 -51 16 l-42 6 -5 -8z m187 -262 l6 -9 52 -7 51 -7 24 -24 23 -23 0 -41 0 -41 -17 4 c-10 3 -62 13 -115 23 l-98 17 0 59 0 58 34 0 35 0 5 -9z"/>
<path d="M5365 2420 c-4 -6 -6 -27 -5 -48 1 -20 2 -76 1 -124 l-1 -88 -55 0 -55 0 0 65 0 65 -23 5 c-13 4 -48 5 -78 3 l-54 -3 -3 -117 -3 -117 20 -10 19 -11 49 9 48 10 115 -20 115 -20 45 -25 44 -25 53 7 53 6 44 -6 44 -7 57 -34 57 -35 47 16 46 15 45 -6 c25 -3 80 -16 123 -28 l77 -22 0 -10 0 -11 103 1 102 0 38 -19 38 -19 9 9 9 9 3 90 3 90 15 -3 c8 -2 39 -1 68 3 l52 6 0 135 0 134 -23 5 c-13 4 -48 5 -78 3 l-54 -3 -3 -67 -3 -68 -54 0 -54 0 -3 133 -3 132 -147 3 -148 3 0 -65 0 -65 63 -3 62 -3 3 -67 3 -68 -336 0 -335 0 0 64 0 64 16 6 c9 3 40 6 70 6 l54 0 0 65 0 65 -144 0 -145 0 -6 -10z"/>
<path d="M2178 2394 c-3 -5 -8 -29 -12 -54 l-6 -45 10 -54 10 -54 -11 -13 -11 -13 4 -100 3 -100 20 -19 20 -19 155 -27 c85 -14 171 -26 191 -26 l35 0 27 28 27 28 6 32 7 32 24 -47 c31 -59 67 -98 107 -116 l31 -15 122 -17 121 -16 30 15 30 15 33 43 34 42 0 114 0 114 -10 6 c-6 4 -23 24 -38 45 l-29 38 -36 24 -37 24 -109 21 -108 21 -28 -6 -29 -6 -40 -29 -40 -29 -16 -53 -15 -52 0 -45 -1 -46 -13 38 c-17 45 -29 63 -73 102 l-34 31 50 33 c28 18 58 42 66 54 l15 21 -8 7 c-10 9 -96 29 -126 29 l-24 0 -75 -50 -75 -50 -31 0 -31 0 0 59 0 59 -13 10 c-7 6 -31 14 -54 18 l-40 6 -5 -8z m780 -251 l53 -15 16 -25 17 -25 -2 -69 -2 -68 -10 -26 -10 -25 -27 0 c-16 1 -57 7 -93 15 l-65 14 -22 26 -23 26 0 78 0 77 21 22 20 23 37 -7 c20 -3 61 -13 90 -21z m-566 -28 l78 -15 19 -12 19 -12 6 -29 c3 -16 6 -38 6 -48 l0 -19 -22 5 c-13 2 -65 12 -115 21 l-93 16 0 54 0 54 13 0 c6 0 47 -7 89 -15z"/>
<path d="M3416 2171 c-4 -6 -10 -35 -13 -64 l-5 -52 11 -40 11 -39 -10 -10 -10 -10 0 -102 0 -102 18 -22 18 -22 39 -2 39 -1 78 125 c43 69 82 126 87 128 l8 3 13 -33 c19 -52 131 -271 148 -290 l15 -18 37 0 38 0 11 13 11 14 0 215 -1 216 -13 11 c-8 7 -30 15 -50 18 l-36 6 -15 -13 -15 -12 -1 -77 -1 -76 -8 26 c-4 15 -26 58 -49 97 l-42 72 -19 10 c-10 5 -27 10 -37 10 l-19 0 -25 -27 c-31 -34 -89 -126 -89 -141 0 -6 -3 -13 -7 -15 l-8 -5 3 92 3 92 -13 12 -14 11 -41 7 -40 6 -7 -11z"/>
<path d="M4476 1978 l-16 -22 6 -200 7 -201 20 -22 20 -23 29 0 28 0 67 103 67 102 0 20 0 20 20 16 20 16 18 -22 18 -23 0 -16 c0 -9 29 -74 64 -145 l65 -128 16 -7 c9 -3 29 -6 44 -6 l27 0 12 12 12 12 0 107 0 108 -8 5 -8 5 10 60 10 60 -10 48 -9 48 -52 3 -51 3 -7 -53 -6 -53 9 -47 9 -46 -13 5 -14 5 0 18 c0 23 -35 102 -72 162 l-30 48 -32 0 -32 0 -27 -28 c-14 -15 -40 -52 -56 -82 l-31 -55 0 92 0 92 -17 9 c-10 5 -35 12 -55 16 l-36 7 -16 -23z"/>
<path d="M828 1918 c-2 -29 -1 -81 0 -115 l4 -63 64 0 64 0 0 -54 c0 -30 3 -61 6 -70 l6 -16 64 0 64 0 0 -65 0 -65 -57 0 -58 0 -13 -9 -13 -8 3 -59 3 -59 153 -3 152 -3 0 136 0 135 195 0 195 0 0 -135 0 -135 150 0 151 0 -3 68 -3 67 -67 3 -68 3 0 64 0 64 68 3 67 3 3 68 3 67 63 0 63 0 7 7 7 8 -123 22 c-68 12 -135 22 -150 22 l-28 1 0 -24 0 -24 -16 -6 c-9 -3 -28 -6 -44 -6 -16 0 -35 3 -44 6 l-16 6 0 39 c0 21 -1 39 -2 39 -8 0 -247 41 -323 55 l-89 17 -47 19 -47 18 -34 -5 -33 -6 -117 21 c-64 12 -126 21 -137 21 l-20 0 -3 -52z m412 -102 l0 -64 -46 -7 -45 -6 -15 12 -14 11 0 59 0 59 60 0 60 0 0 -64z"/>
<path d="M3238 1683 l13 -5 6 6 6 6 -19 -1 -19 -1 13 -5z"/>
<path d="M3228 1615 l4 -55 -67 0 -68 0 -11 15 -11 15 -82 7 -83 6 0 -101 0 -100 75 -7 75 -7 1 -27 c1 -30 6 -113 8 -123 l1 -7 78 -3 77 -3 5 -75 5 -75 78 -3 78 -3 -3 -77 -3 -77 -77 -3 -78 -3 0 -79 0 -80 90 0 90 0 0 80 0 80 80 0 80 0 0 80 0 80 150 0 149 0 3 -77 3 -78 78 -3 77 -3 0 -80 0 -80 93 3 92 3 0 75 0 75 -80 5 -80 5 -1 77 -2 77 77 3 76 3 3 55 c1 30 4 65 7 78 l5 22 64 0 c36 0 71 3 80 6 l16 6 0 48 0 49 -12 8 c-13 8 -69 19 -241 48 l-88 15 -36 15 -35 15 -53 0 -52 0 -44 15 -44 16 -28 27 c-16 15 -37 42 -49 60 l-20 32 -14 0 -15 0 -37 -29 -37 -29 -34 -11 c-46 -15 -70 -14 -129 5 l-51 17 -37 30 -36 31 -14 33 -14 33 -18 0 -17 0 3 -55z m322 -300 l0 -75 -70 0 -70 0 0 75 0 75 70 0 70 0 0 -75z m480 0 l0 -75 -70 0 -70 0 0 68 0 69 7 6 6 7 64 0 63 0 0 -75z"/>
<path d="M6270 1644 l-10 -25 0 -45 0 -44 -38 0 -38 0 -11 -11 c-6 -6 -22 -17 -34 -23 l-24 -11 -12 -25 -13 -25 0 -92 0 -92 20 -11 21 -11 42 3 42 3 3 92 3 91 13 5 13 5 73 -14 c40 -7 81 -16 91 -19 l18 -6 12 -36 11 -35 -6 -57 -6 -57 13 -17 13 -18 49 -2 50 -2 0 114 0 113 -57 53 -57 53 -30 7 -31 7 0 63 0 64 -16 15 -15 16 -40 0 -39 0 -10 -26z"/>
</g>
<g id="layer103" fill="#fefefe" stroke="none">
<path d="M746 2632 c-2 -4 -5 -100 -5 -213 l0 -206 12 -16 12 -15 110 -20 c61 -11 140 -26 178 -32 l67 -12 31 12 30 13 14 28 15 28 0 49 0 49 -11 31 -10 31 -25 16 -24 15 0 15 0 14 -30 16 -30 16 62 47 63 47 0 15 0 15 -66 9 -66 9 -78 -52 -78 -51 -28 0 -29 0 0 49 0 50 -10 25 -10 26 -44 0 -45 0 -5 -8z m188 -251 l6 -9 52 -7 51 -7 24 -24 23 -23 0 -41 0 -41 -17 4 c-10 3 -62 13 -115 23 l-98 17 0 59 0 58 34 0 35 0 5 -9z"/>
<path d="M1305 2541 c-11 -5 -29 -19 -40 -31 l-20 -22 -3 -167 -3 -167 10 -27 11 -27 23 -9 c32 -12 325 -65 367 -66 19 0 40 -3 45 -7 6 -3 33 -9 60 -12 28 -4 79 -14 115 -21 36 -8 108 -21 160 -29 l94 -15 13 11 13 10 0 33 0 33 -14 11 -14 12 -64 11 c-34 6 -67 15 -71 19 l-9 7 0 160 0 160 -12 17 -12 16 -42 6 -42 6 -8 -24 -9 -24 -1 -148 c0 -82 -2 -150 -3 -151 -2 -2 -35 1 -72 7 l-68 10 -11 -11 -11 -11 -11 14 -11 15 -75 15 c-41 8 -108 20 -147 26 l-73 11 0 39 0 39 43 -6 c23 -3 54 -10 69 -16 l27 -10 68 -1 68 -2 3 27 3 27 -18 9 c-16 9 -169 36 -243 44 l-25 3 4 45 c1 25 5 47 6 48 2 2 58 -5 124 -17 66 -12 131 -21 144 -21 l25 0 11 14 12 14 -9 34 -8 33 -25 12 -24 11 -139 21 c-153 23 -153 23 -181 12z"/>
<path d="M2178 2394 c-3 -5 -8 -29 -12 -54 l-6 -45 10 -54 10 -54 -11 -13 -11 -13 4 -100 3 -100 20 -19 20 -19 155 -27 c85 -14 171 -26 191 -26 l35 0 27 28 27 28 6 32 7 32 24 -47 c31 -59 67 -98 107 -116 l31 -15 122 -17 121 -16 30 15 30 15 33 43 34 42 0 114 0 114 -10 6 c-6 4 -23 24 -38 45 l-29 38 -36 24 -37 24 -109 21 -108 21 -28 -6 -29 -6 -40 -29 -40 -29 -16 -53 -15 -52 0 -45 -1 -46 -13 38 c-17 45 -29 63 -73 102 l-34 31 49 32 c53 34 68 49 74 71 l3 13 -50 14 c-27 7 -62 13 -77 14 l-26 0 -75 -50 -75 -50 -31 0 -31 0 0 59 0 59 -13 10 c-7 6 -31 14 -54 18 l-40 6 -5 -8z m780 -251 l53 -15 16 -25 17 -25 -2 -69 -2 -68 -10 -26 -10 -25 -27 0 c-16 1 -57 7 -93 15 l-65 14 -22 26 -23 26 0 78 0 77 21 22 20 23 37 -7 c20 -3 61 -13 90 -21z m-566 -28 l78 -15 19 -12 19 -12 6 -29 c3 -16 6 -38 6 -48 l0 -19 -22 5 c-13 2 -65 12 -115 21 l-93 16 0 54 0 54 13 0 c6 0 47 -7 89 -15z"/>
<path d="M3416 2171 c-4 -6 -10 -35 -13 -64 l-5 -52 11 -40 11 -39 -10 -10 -10 -10 0 -102 0 -102 18 -22 18 -22 39 -2 39 -1 78 125 c43 69 82 126 87 128 l8 3 13 -33 c19 -52 131 -271 148 -290 l15 -18 37 0 38 0 11 13 11 14 0 215 -1 216 -13 11 c-8 7 -30 15 -50 18 l-36 6 -15 -13 -15 -12 0 -76 0 -76 -40 82 -39 82 -25 25 -25 25 -24 0 -23 0 -25 -27 c-27 -30 -80 -113 -95 -151 l-9 -23 3 99 4 98 -14 12 -14 11 -41 7 -40 6 -7 -11z"/>
<path d="M4032 2032 l-31 -29 0 -186 -1 -186 24 -18 24 -19 187 -32 188 -33 9 9 9 9 -3 49 -3 48 -30 8 c-16 4 -85 17 -152 29 l-123 22 0 32 0 31 78 -13 c42 -8 100 -16 127 -19 l51 -6 13 16 14 16 -9 33 -10 32 -24 12 c-14 6 -69 19 -123 28 l-97 16 -10 -6 -10 -6 0 39 0 39 95 -19 c53 -10 121 -19 153 -20 l57 -3 3 44 3 44 -9 9 -10 10 -134 24 -133 24 -46 0 -47 0 -30 -28z"/>
<path d="M4476 1978 l-16 -22 6 -200 7 -201 20 -22 20 -23 29 0 28 0 67 103 67 102 0 20 0 20 20 16 20 16 18 -22 18 -23 0 -16 c0 -9 29 -74 64 -145 l65 -128 16 -7 c9 -3 29 -6 44 -6 l27 0 12 12 12 12 0 107 0 108 -8 5 -8 5 10 60 10 60 -10 48 -9 48 -50 0 -49 0 -9 -38 -9 -39 9 -58 9 -58 -13 5 -13 5 0 19 0 19 -31 65 c-17 36 -42 79 -56 95 l-25 30 -27 0 -27 0 -27 -28 c-14 -15 -40 -52 -56 -82 l-31 -55 0 92 0 92 -17 9 c-10 5 -35 12 -55 16 l-36 7 -16 -23z"/>
<path d="M5135 1841 c-16 -10 -39 -28 -50 -41 l-20 -22 -1 -52 c0 -28 -4 -59 -9 -69 l-7 -18 6 -51 7 -51 19 -36 18 -36 34 -32 33 -32 110 -20 110 -21 43 0 43 0 34 26 33 25 16 40 16 39 0 49 0 48 -7 6 -6 7 -1 53 -1 52 -25 33 -25 33 -43 29 -42 28 -88 16 c-48 9 -105 16 -127 16 l-40 0 -30 -19z m203 -107 c68 -20 79 -28 97 -70 l13 -32 -5 -64 c-3 -34 -10 -71 -15 -80 l-9 -18 -42 0 -42 0 -55 15 -55 14 -22 26 -23 26 0 54 0 54 -10 6 -10 6 16 32 c21 40 31 47 72 47 l34 0 56 -16z"/>
<path d="M5601 1777 l-11 -14 3 -201 2 -202 25 -24 25 -25 89 -11 c48 -6 113 -17 144 -25 l56 -15 42 0 41 0 26 20 25 20 7 41 7 41 -7 53 -6 54 -54 55 -53 56 41 29 c23 16 51 38 61 50 l20 21 -10 10 -10 10 -61 11 -62 11 -69 -45 c-38 -25 -73 -50 -76 -56 l-7 -11 -30 0 -29 0 0 63 0 64 -18 16 -19 17 -40 0 -41 0 -11 -13z m255 -272 l52 -7 21 -19 21 -20 0 -39 0 -40 -17 1 c-10 0 -58 8 -108 18 l-90 17 -3 53 -3 53 38 -6 c21 -3 61 -8 89 -11z"/>
<path d="M6270 1644 l-10 -25 0 -45 0 -44 -38 0 -38 0 -11 -11 c-6 -6 -22 -17 -34 -23 l-24 -11 -12 -25 -13 -25 0 -92 0 -92 20 -11 21 -11 42 3 42 3 3 92 3 91 13 5 13 5 73 -14 c40 -7 81 -16 91 -19 l18 -6 12 -36 11 -35 -6 -57 -6 -57 13 -17 13 -18 49 -2 50 -2 0 114 0 113 -57 53 -57 53 -30 7 -31 7 0 62 0 63 -18 16 -19 17 -37 0 -36 0 -10 -26z"/>
</g>


</svg>